<svg xmlns="http://www.w3.org/2000/svg" viewBox="0 0 220 130"><defs><style>.cls-1{fill:#577399;}.cls-2{fill:#a3d9ff;}.cls-3{fill:#bdd5ea;}</style></defs><title>Asset 8hard</title><g id="Layer_2" data-name="Layer 2"><g id="Layer_1-2" data-name="Layer 1"><path class="cls-1" d="M46,90,169,73s6,14-13,33H46Z"/><path class="cls-1" d="M86,0l17.55,75.29s28.86-13.36,56.64-6Z"/><path class="cls-1" d="M85.22,14.69,96.57,69.48S73,70,56.53,83.79Z"/><path class="cls-2" d="M186,98.88s-25-26.73-60,0c-26.25,20.05-41.25,10-47.11,3.76a32.63,32.63,0,0,0-14.77-9.2C56.33,91.21,46,90.76,37,98.88c-8.33,7.54-17.38,7.69-24.44,5.88C6.23,103.14,0,107.62,0,113.75V130H186Z"/><path class="cls-3" d="M220,111.68C220,100,213.27,89.45,203.28,86c-10.64-3.63-25.7-3.7-43.28,10.67-26.25,21.44-41.25,10.72-47.11,4a32.75,32.75,0,0,0-16-10.19c-7.63-2.06-17.4-2.08-25.91,6.17C54,113.17,57,109.8,57,109.8L34,130H220Z"/></g></g></svg>